<?xml version="1.0" standalone="no"?>
<!DOCTYPE svg PUBLIC "-//W3C//DTD SVG 20010904//EN"
 "http://www.w3.org/TR/2001/REC-SVG-20010904/DTD/svg10.dtd">
<svg version="1.0" xmlns="http://www.w3.org/2000/svg"
 width="512.000000pt" height="512.000000pt" viewBox="0 0 512.000000 512.000000"
 preserveAspectRatio="xMidYMid meet">

<g transform="translate(0.000000,512.000000) scale(0.100000,-0.100000)"
fill="#000000" stroke="none">
<path d="M2802 5060 c-300 -31 -563 -154 -783 -367 -240 -232 -376 -524 -398
-848 l-6 -100 -257 -3 c-142 -1 -258 0 -258 2 0 12 -172 785 -180 812 -13 39
-54 78 -102 98 -32 14 -97 16 -428 16 l-390 0 0 -180 0 -180 305 0 c168 0 305
-2 305 -4 0 -8 561 -2581 566 -2600 11 -35 75 -95 112 -106 24 -6 585 -10
1635 -10 1422 0 1602 2 1635 16 58 24 91 62 111 129 10 33 116 454 236 935
234 939 229 911 182 980 -29 44 -65 69 -113 80 -21 5 -193 10 -380 10 l-341 0
-6 98 c-24 453 -309 881 -727 1092 -202 102 -487 154 -718 130z m217 -360 c56
-6 141 -22 189 -36 467 -135 761 -623 663 -1100 -62 -300 -249 -539 -526 -675
-532 -259 -1155 20 -1332 598 -24 80 -27 103 -27 258 -1 190 12 258 78 401
141 305 443 522 769 553 45 5 83 9 83 10 1 0 47 -4 103 -9z"/>
<path d="M3103 4026 l-312 -294 -162 164 c-90 90 -167 164 -172 164 -6 0 -65
-55 -133 -121 l-123 -122 227 -234 c125 -129 245 -246 268 -259 45 -27 119
-32 166 -11 15 7 203 178 418 381 l390 368 -121 129 c-67 71 -124 129 -128
129 -3 0 -146 -132 -318 -294z"/>
<path d="M3668 1298 c-97 -9 -188 -43 -272 -99 -159 -106 -251 -257 -275 -449
-38 -300 155 -587 454 -676 82 -25 248 -25 330 0 161 48 313 171 387 311 125
240 84 534 -102 724 -141 144 -321 210 -522 189z"/>
<path d="M1732 1289 c-126 -16 -242 -72 -336 -159 -84 -79 -133 -154 -169
-260 -26 -73 -30 -99 -30 -190 0 -71 5 -124 17 -164 51 -175 172 -320 326
-394 102 -48 163 -62 278 -62 167 0 310 58 428 175 123 122 184 267 184 440 0
174 -57 312 -181 436 -137 139 -326 204 -517 178z"/>
</g>
</svg>
